<?xml version="1.0" standalone="no"?>
<!DOCTYPE svg PUBLIC "-//W3C//DTD SVG 20010904//EN"
 "http://www.w3.org/TR/2001/REC-SVG-20010904/DTD/svg10.dtd">
<svg version="1.0" xmlns="http://www.w3.org/2000/svg"
 width="2638.000000pt" height="1387.000000pt" viewBox="0 0 2638.000000 1387.000000"
 preserveAspectRatio="xMidYMid meet">
<metadata>
Created by potrace 1.16, written by Peter Selinger 2001-2019
</metadata>
<g transform="translate(0.000000,1387.000000) scale(0.100000,-0.100000)"
fill="#000000" stroke="none">
<path d="M6777 13864 c-4 -4 -47 -8 -95 -9 -48 -1 -114 -9 -146 -17 -64 -15
-79 -30 -106 -102 -18 -49 -40 -56 -146 -48 -77 5 -114 -7 -114 -38 0 -22 -12
-26 -105 -35 -38 -4 -83 -14 -100 -23 -19 -10 -67 -17 -133 -20 -57 -3 -100
-8 -95 -12 4 -4 37 -12 73 -18 90 -14 120 -27 120 -52 0 -22 68 -77 108 -87
15 -3 39 2 65 15 l40 20 51 -20 c166 -67 280 -62 457 21 90 42 135 56 64 20
-83 -43 -175 -100 -175 -109 0 -17 43 -11 120 15 40 14 75 23 77 21 7 -7 -149
-64 -237 -86 -54 -15 -96 -20 -124 -16 -160 24 -206 17 -206 -28 0 -55 155
-140 258 -142 70 -2 93 -14 76 -42 -22 -35 -55 -43 -154 -39 -128 7 -204 35
-220 81 -5 17 -26 49 -45 69 -29 31 -35 45 -35 81 l0 43 -47 6 c-29 3 -86 25
-149 57 -93 49 -106 52 -153 48 -70 -7 -85 -23 -48 -52 25 -20 26 -24 12 -30
-9 -3 -31 -6 -49 -6 -18 0 -48 -10 -67 -23 -27 -18 -35 -31 -37 -59 -4 -52 33
-75 146 -92 124 -19 170 -47 100 -61 -114 -23 -131 -38 -83 -69 14 -9 25 -25
25 -36 0 -27 36 -40 109 -40 75 0 134 21 182 65 45 41 48 41 80 16 13 -10 50
-33 82 -51 31 -17 57 -33 57 -34 0 -1 -18 0 -39 2 -42 4 -151 -37 -151 -57 0
-6 12 -18 26 -27 l25 -17 -37 -13 c-45 -15 -79 -47 -71 -67 7 -19 45 -24 267
-37 165 -10 231 -18 322 -37 50 -10 214 58 225 94 3 8 -17 11 -74 10 -61 -1
-88 3 -123 20 l-45 21 44 1 c37 1 42 3 31 16 -15 18 -61 20 -79 3 -11 -11 -13
-10 -9 2 4 12 28 16 109 21 101 5 107 7 209 57 108 54 140 80 140 114 0 18 -6
19 -77 16 -71 -3 -78 -1 -78 16 0 28 45 56 111 69 51 11 59 15 59 35 1 45 22
47 144 11 35 -10 67 -19 72 -19 5 0 26 15 46 33 48 43 141 96 316 181 130 63
169 96 116 96 -12 0 -39 5 -60 12 -44 13 -63 3 -35 -17 24 -18 15 -30 -41 -49
-122 -42 -151 3 -36 57 32 14 119 49 195 75 154 56 221 90 226 114 4 23 -89
84 -147 97 -33 7 -64 6 -124 -6 -94 -19 -131 -11 -132 27 0 48 -35 55 -295 55
-129 0 -284 4 -345 9 -60 5 -113 5 -118 0z"/>
<path d="M9546 13857 c-10 -7 -16 -22 -14 -32 2 -13 -5 -22 -24 -29 -27 -9
-33 -8 -191 50 -46 16 -52 16 -101 1 -65 -21 -90 -21 -106 -2 -19 23 -86 19
-111 -6 -29 -29 -24 -93 8 -97 17 -3 28 6 44 32 12 20 26 36 31 36 21 0 110
-98 106 -117 -8 -44 -81 -50 -378 -27 -56 4 -85 2 -113 -9 -34 -15 -36 -19
-34 -54 3 -51 -21 -54 -71 -9 -49 44 -76 46 -90 7 l-10 -28 -169 -5 c-134 -5
-181 -10 -234 -27 -79 -25 -99 -43 -80 -72 10 -18 8 -24 -23 -55 -28 -28 -41
-34 -74 -32 -23 1 -48 -4 -56 -11 -8 -6 -39 -13 -69 -15 -36 -2 -79 -15 -123
-35 -76 -36 -104 -57 -104 -79 0 -15 40 -14 176 4 34 4 54 2 58 -5 16 -26 -70
-148 -125 -176 -15 -8 -43 -15 -61 -15 -42 0 -100 -16 -109 -31 -3 -6 -37 -12
-75 -13 -96 -4 -214 -51 -214 -86 0 -21 48 -31 189 -39 113 -6 156 -12 175
-25 14 -9 26 -21 26 -27 0 -16 -58 -36 -156 -54 -109 -20 -124 -24 -124 -35 0
-5 17 -14 38 -21 48 -15 62 -27 62 -51 0 -39 110 -61 190 -38 25 7 440 37 558
40 1 0 22 -31 46 -69 25 -38 72 -99 105 -136 34 -37 61 -76 61 -86 0 -10 15
-36 33 -56 60 -70 62 -73 67 -161 3 -51 10 -87 16 -89 18 -6 43 24 54 67 12
46 18 48 54 19 30 -24 56 -69 56 -98 0 -30 -49 -80 -95 -95 -58 -20 -53 -32
13 -38 32 -3 73 -13 90 -22 33 -17 82 -65 82 -80 0 -5 -21 -32 -47 -59 l-47
-50 39 -34 c21 -18 36 -35 34 -37 -2 -3 -27 -14 -54 -26 -60 -26 -85 -47 -85
-72 0 -24 25 -23 62 4 23 16 35 19 47 11 21 -14 15 -40 -16 -77 -14 -17 -22
-37 -20 -48 4 -13 -4 -26 -24 -40 -29 -22 -39 -61 -18 -74 6 -3 9 -19 5 -35
-6 -32 12 -40 33 -15 17 21 51 27 58 10 3 -7 0 -27 -5 -43 -15 -43 0 -88 58
-173 109 -163 183 -223 292 -238 66 -10 88 -26 88 -66 0 -13 5 -26 10 -29 15
-9 102 42 149 87 l41 39 0 89 c0 76 3 92 20 108 11 10 27 42 36 71 12 40 31
69 86 127 95 100 177 154 232 154 112 0 203 67 227 166 13 54 16 59 48 65 18
4 52 21 75 38 73 56 96 62 285 71 115 5 190 13 216 23 166 62 207 76 260 87
33 7 64 16 68 21 18 15 -136 40 -230 38 -73 -2 -97 1 -109 13 -13 13 -11 18
20 42 27 20 36 35 36 56 0 39 21 57 74 65 56 9 74 -2 100 -56 16 -34 27 -45
49 -47 36 -4 57 13 57 48 0 38 -37 80 -102 115 -49 28 -60 30 -141 28 -100 -2
-113 7 -82 60 18 30 18 31 -6 51 -14 12 -35 28 -49 37 -16 11 -21 21 -17 33 6
16 18 18 90 15 l82 -4 3 32 c4 43 33 63 75 53 40 -9 65 -22 140 -73 57 -39
147 -63 147 -40 0 6 -20 27 -45 47 -25 21 -45 44 -45 52 0 21 42 34 110 34 74
0 84 14 37 52 -21 17 -34 35 -31 43 4 10 -7 17 -38 25 -59 15 -108 37 -108 50
0 15 55 37 113 45 72 11 65 22 -21 28 -72 5 -132 22 -132 37 0 4 8 14 18 23
30 27 96 38 182 31 68 -6 80 -5 80 8 0 21 -24 40 -47 38 -37 -4 -52 1 -82 29
-25 23 -31 37 -31 69 0 23 -6 45 -15 52 -20 16 -5 36 44 56 46 19 81 52 81 77
0 11 18 38 41 59 23 22 39 41 36 44 -3 3 -29 1 -58 -4 -32 -6 -62 -6 -77 -1
-22 9 -23 11 -10 32 24 35 63 48 172 56 106 8 126 13 126 35 0 21 32 41 85 54
28 7 84 29 125 48 87 42 85 45 -51 63 -93 12 -126 9 -209 -21 -57 -21 -138
-26 -225 -14 -40 6 -64 2 -119 -18 -83 -29 -112 -23 -95 21 5 14 7 29 3 32
-11 12 -197 13 -294 2 -116 -14 -184 -33 -342 -95 -134 -53 -194 -65 -222 -43
-18 13 -17 15 25 41 58 35 282 123 389 153 49 14 138 28 210 34 68 5 150 16
181 24 67 18 174 64 166 72 -3 3 -60 0 -126 -7 -188 -20 -267 -3 -207 45 18
14 26 27 21 35 -11 17 -218 7 -420 -21 -182 -24 -308 -34 -331 -25 -16 6 -16
8 1 26 18 20 110 54 178 66 76 13 32 21 -160 27 -288 10 -357 9 -377 -6z"/>
<path d="M16405 13489 c-4 -5 -4 -21 -1 -35 6 -21 12 -24 41 -22 21 1 41 -5
53 -15 22 -20 61 -22 105 -4 42 18 60 41 52 67 -5 16 -15 20 -51 20 -25 0 -59
-7 -75 -16 -28 -14 -32 -14 -48 0 -20 18 -67 21 -76 5z"/>
<path d="M19366 13426 c-32 -19 -68 -43 -79 -54 -18 -18 -19 -23 -6 -38 8 -9
28 -23 46 -31 63 -26 220 -10 265 27 19 15 21 21 11 43 -7 15 -31 40 -54 57
-57 41 -105 40 -183 -4z"/>
<path d="M15915 13424 c-55 -20 -79 -46 -71 -77 6 -27 69 -72 113 -83 15 -4
42 -15 60 -26 25 -15 37 -17 53 -8 22 12 27 42 8 58 -7 6 -26 12 -43 14 -44 5
-47 42 -6 66 34 19 42 56 15 66 -26 10 -87 5 -129 -10z"/>
<path d="M16127 13409 c-20 -17 -37 -35 -37 -40 0 -5 16 -32 35 -60 19 -28 35
-57 35 -64 0 -8 13 -16 30 -20 16 -4 32 -11 35 -16 10 -16 65 -10 72 7 10 27
-11 49 -47 49 -72 0 -31 42 57 58 28 5 32 3 38 -21 14 -56 45 -66 100 -32 29
18 34 18 45 5 18 -22 62 -18 100 8 41 27 46 40 25 61 -21 20 -69 21 -85 1 -19
-23 -38 -18 -55 15 -12 24 -22 30 -43 28 -15 -1 -40 6 -55 17 -27 18 -29 18
-57 -3 l-28 -21 -37 29 c-48 38 -81 38 -128 -1z"/>
<path d="M16658 13409 c-23 -13 -23 -31 2 -79 11 -22 20 -48 20 -60 0 -26 23
-26 61 3 35 25 59 65 59 98 0 19 -4 21 -33 16 -23 -3 -39 1 -56 14 -27 22 -30
22 -53 8z"/>
<path d="M14150 13300 c0 -11 -16 -37 -36 -58 -20 -20 -33 -31 -29 -25 12 24
-15 52 -67 68 -56 16 -158 21 -158 6 0 -4 9 -20 20 -34 11 -14 20 -31 20 -39
0 -16 -61 -78 -76 -78 -6 0 -25 16 -43 36 -61 67 -108 68 -178 3 -45 -41 -61
-45 -106 -26 l-29 12 41 33 c58 46 54 56 -22 49 -93 -9 -172 -37 -172 -62 0
-14 6 -19 20 -17 80 14 94 -6 45 -62 -23 -26 -40 -36 -61 -36 -35 0 -38 -18
-6 -48 31 -29 84 -30 89 -1 3 19 4 19 37 -5 46 -35 72 -33 126 9 48 36 99 51
134 40 44 -14 22 -43 -63 -85 -65 -32 -68 -55 -6 -55 41 0 45 -2 45 -25 0 -20
-10 -30 -52 -50 -29 -14 -53 -28 -53 -32 0 -4 12 -11 26 -14 14 -4 46 -24 71
-45 67 -59 92 -51 132 44 26 59 100 175 130 201 22 20 22 20 75 -7 29 -15 63
-27 74 -27 26 0 26 -6 7 -40 -29 -51 -22 -60 53 -59 88 1 117 10 117 34 0 15
-23 31 -90 65 -50 25 -110 53 -133 62 -33 13 -42 22 -42 41 0 23 -32 47 -65
47 -26 0 -29 23 -5 42 28 23 52 22 169 -2 115 -24 191 -25 234 -4 48 25 167
106 167 114 0 9 -238 50 -294 50 -39 0 -46 -3 -46 -20z"/>
<path d="M19194 13275 c-19 -15 -19 -15 1 -30 11 -9 37 -20 60 -26 l40 -11
-28 -14 c-15 -8 -27 -18 -27 -23 0 -4 48 -18 108 -30 115 -25 245 -65 330
-102 50 -22 53 -22 70 -6 12 13 18 39 21 97 4 104 -2 130 -34 130 -16 0 -37
-15 -66 -49 l-43 -50 -15 47 c-11 30 -25 51 -41 59 -39 20 -109 15 -173 -11
-47 -20 -57 -21 -53 -9 4 9 1 22 -5 29 -16 19 -119 19 -145 -1z"/>
<path d="M4783 13174 c-22 -9 -14 -28 22 -57 26 -21 34 -34 30 -48 -6 -18 -1
-19 57 -17 70 2 87 -5 168 -67 56 -44 111 -75 130 -75 19 0 10 46 -18 91 -36
56 -118 113 -208 143 -71 25 -159 39 -181 30z"/>
<path d="M19955 13138 c-34 -19 -66 -51 -111 -112 -70 -94 -61 -102 70 -61 43
14 110 30 150 36 123 19 139 33 89 82 -58 54 -152 81 -198 55z"/>
<path d="M4338 13021 c-92 -7 -104 -11 -95 -36 5 -11 22 -15 64 -16 l58 0 -49
-20 c-73 -29 -108 -57 -104 -83 2 -16 11 -22 38 -24 28 -2 51 8 112 47 89 57
115 89 98 120 -6 12 -16 20 -23 19 -7 0 -51 -4 -99 -7z"/>
<path d="M20043 12899 c-42 -20 -82 -64 -104 -113 -10 -21 -9 -30 5 -51 31
-47 16 -57 -71 -50 -68 5 -87 2 -148 -20 -133 -49 -137 -50 -196 -32 -58 19
-92 15 -284 -27 -38 -9 -118 -20 -176 -26 -156 -15 -289 -64 -289 -108 0 -8
18 -35 41 -59 22 -24 39 -52 37 -61 -4 -19 -10 -19 -148 -3 -52 6 -139 11
-192 11 -109 0 -128 -9 -128 -63 0 -44 23 -73 63 -81 18 -3 49 -20 69 -36 72
-59 114 -195 69 -220 -50 -26 -81 1 -81 71 0 63 -23 87 -122 123 -98 37 -151
43 -182 22 -31 -20 -50 -20 -66 -1 -16 19 -50 19 -50 0 0 -14 15 -29 104 -107
87 -77 -32 -78 -132 -1 -23 17 -47 52 -70 102 l-35 76 -14 -35 c-8 -19 -28
-49 -44 -68 -33 -37 -36 -64 -15 -133 8 -26 17 -71 21 -102 8 -60 16 -67 86
-67 86 0 210 -100 223 -180 5 -33 13 -45 41 -61 39 -23 42 -31 20 -49 -41 -34
-145 37 -145 98 0 33 -30 81 -62 98 -56 32 -85 11 -143 -101 -20 -39 -53 -89
-72 -113 -38 -47 -128 -112 -155 -112 -25 0 -109 38 -146 67 -30 23 -32 27
-19 41 26 25 94 19 126 -12 15 -14 34 -26 42 -26 80 0 143 367 89 520 -24 68
-24 89 -3 156 15 49 15 54 0 78 -20 30 -113 53 -161 39 -31 -9 -39 -19 -99
-123 -18 -30 -52 -69 -77 -88 -25 -19 -49 -42 -54 -52 -13 -27 20 -86 91 -161
71 -75 80 -107 38 -135 -30 -20 -62 -11 -125 35 -62 45 -158 72 -276 78 l-102
6 -71 -67 c-72 -68 -100 -79 -136 -53 -17 13 -17 15 5 45 13 18 21 34 18 37
-3 3 -56 -21 -119 -54 -130 -67 -215 -97 -235 -80 -7 6 -16 24 -19 40 -8 38
-30 38 -120 0 -39 -16 -92 -33 -120 -36 -63 -9 -114 -35 -190 -95 -64 -51
-115 -80 -139 -80 -20 0 -76 49 -76 67 0 8 18 22 40 30 22 9 40 22 40 30 0 16
-134 83 -167 83 -30 0 -30 -28 -2 -121 22 -73 20 -127 -5 -149 -10 -7 -34 -9
-75 -4 -53 6 -67 3 -116 -20 -62 -31 -98 -70 -90 -97 8 -24 -36 -69 -65 -69
-12 0 -52 14 -90 30 -38 17 -73 30 -79 30 -28 0 -18 -25 25 -65 48 -43 48 -44
30 -64 -24 -26 -49 -26 -101 -1 -61 29 -104 77 -137 150 -17 37 -49 85 -75
112 l-46 47 26 10 c28 11 71 1 182 -40 116 -43 308 -25 364 35 35 38 25 73
-34 118 -70 54 -297 166 -351 174 -30 4 -62 19 -92 43 l-47 36 -137 -3 c-144
-3 -191 6 -168 33 6 8 31 22 56 31 52 20 57 34 12 34 -53 1 -108 17 -132 39
-29 28 -66 28 -66 1 0 -20 -1 -20 -26 -3 -24 16 -28 16 -60 -2 -25 -14 -37
-16 -46 -7 -8 8 -5 9 12 5 17 -5 21 -2 19 12 -7 34 -34 41 -86 22 -26 -9 -58
-14 -70 -11 -21 6 -22 4 -17 -24 5 -27 2 -32 -24 -46 -39 -20 -77 -20 -132 -1
-24 8 -46 13 -49 9 -3 -3 2 -19 11 -35 16 -27 16 -29 0 -29 -10 0 -27 -7 -39
-15 -12 -8 -28 -12 -37 -9 -8 3 -35 -7 -61 -21 -37 -22 -53 -26 -86 -21 -47 8
-89 -1 -89 -19 0 -7 8 -27 17 -44 17 -29 17 -31 -3 -58 -12 -15 -34 -32 -50
-37 -68 -20 -74 -25 -80 -65 -5 -30 -12 -41 -29 -45 -13 -3 -43 -21 -68 -40
-58 -45 -83 -57 -105 -54 -14 3 -17 -4 -14 -42 l3 -46 -71 -23 c-39 -12 -74
-29 -77 -37 -3 -8 6 -23 21 -35 53 -41 55 -148 3 -184 -29 -20 -60 -19 -108 6
-49 24 -66 20 -71 -17 -3 -28 -17 -41 -122 -114 -74 -51 -91 -108 -59 -197 11
-31 16 -76 16 -126 -2 -98 12 -117 86 -117 67 0 93 11 179 77 40 31 74 54 76
52 2 -2 17 -31 34 -64 26 -52 46 -103 118 -302 8 -23 24 -45 34 -48 10 -3 46
9 87 30 38 20 89 39 113 42 58 7 69 22 60 75 -16 84 31 183 89 190 21 2 26 8
26 30 0 15 6 33 13 39 21 22 13 49 -28 102 -52 64 -56 84 -36 165 24 99 57
133 228 237 32 20 36 28 55 124 7 36 73 97 120 111 52 16 105 -1 136 -42 l20
-27 -25 -38 c-14 -21 -68 -84 -121 -140 -53 -56 -103 -115 -111 -132 -31 -60
-13 -225 30 -268 30 -30 61 -29 175 6 174 53 298 50 354 -9 26 -27 26 -29 7
-39 -34 -18 -106 -30 -248 -41 -159 -12 -174 -19 -174 -85 0 -31 6 -47 24 -64
33 -31 39 -64 22 -106 -19 -44 -45 -46 -86 -5 -40 39 -81 40 -110 3 -20 -25
-22 -36 -17 -96 l6 -69 -40 -42 c-21 -24 -59 -54 -84 -67 -44 -24 -45 -24 -79
-5 -48 26 -88 18 -217 -45 -58 -28 -114 -49 -124 -48 -11 3 -22 17 -27 37 -7
27 -13 32 -39 32 -17 0 -55 -7 -84 -15 -62 -18 -87 -12 -134 36 -36 35 -37 51
-10 150 15 60 8 79 -30 79 -60 0 -73 -61 -50 -226 13 -94 9 -98 -85 -107 -64
-6 -145 -36 -167 -63 -6 -8 -24 -14 -40 -14 -29 0 -32 -5 -43 -72 -8 -47 -53
-86 -109 -95 -34 -5 -54 -18 -107 -73 -73 -75 -130 -109 -199 -119 -41 -6 -48
-11 -67 -46 l-21 -40 -72 4 -73 3 4 -28 c2 -23 13 -35 50 -54 68 -37 95 -66
134 -145 46 -95 53 -165 22 -224 -13 -25 -35 -54 -51 -65 -26 -19 -32 -19
-125 -8 -162 20 -325 26 -350 13 -21 -11 -22 -18 -22 -154 -1 -97 -5 -155 -15
-182 -23 -62 -19 -136 8 -176 26 -38 56 -56 110 -64 26 -4 49 -18 77 -48 l41
-42 47 19 c26 10 89 31 139 46 165 50 214 95 228 213 8 65 18 75 137 141 72
39 108 76 108 110 0 48 22 96 53 118 28 20 42 23 116 20 79 -2 88 0 158 34 69
34 77 36 113 25 30 -9 52 -28 93 -79 92 -114 201 -210 281 -247 109 -50 150
-103 144 -188 -3 -55 9 -69 37 -40 15 14 17 29 12 92 -3 42 -1 83 4 93 10 18
11 18 43 -2 39 -24 56 -25 56 -5 0 22 -45 58 -130 104 -105 56 -169 116 -224
209 -25 42 -57 96 -72 119 l-26 42 39 42 39 42 22 -37 c14 -24 29 -36 43 -36
15 0 46 -25 92 -76 38 -41 104 -101 146 -133 102 -78 145 -128 166 -192 40
-124 160 -279 215 -279 54 0 46 45 -8 53 -23 3 -25 4 -9 11 14 7 26 2 45 -18
32 -32 23 -57 -25 -67 -16 -3 -35 -9 -41 -13 -17 -10 -15 -75 2 -82 18 -7 86
28 131 67 49 43 47 72 -10 129 -31 31 -46 56 -48 76 -2 27 1 29 32 29 19 0 36
5 38 11 15 44 29 49 135 50 60 0 112 5 125 13 35 18 56 67 48 110 -13 72 -6
103 40 196 53 107 139 209 209 245 l45 24 46 -22 c45 -22 55 -38 34 -59 -37
-37 39 -103 119 -103 60 0 65 21 16 71 l-39 40 26 23 c31 27 185 79 220 74 35
-5 37 -47 3 -106 -40 -72 -33 -86 95 -186 160 -126 186 -162 155 -216 -26 -44
-76 -63 -159 -63 -80 1 -123 11 -252 59 -123 46 -171 45 -275 -2 -44 -20 -99
-39 -122 -41 -43 -6 -96 -28 -96 -41 0 -4 -7 -16 -16 -27 -11 -15 -27 -20 -66
-21 -71 -1 -82 -17 -74 -111 8 -89 30 -164 54 -186 23 -21 126 -57 162 -57 15
0 41 7 58 16 29 14 37 14 99 -2 85 -22 148 -21 207 1 60 23 76 16 76 -34 0
-58 -66 -305 -102 -384 -36 -78 -85 -127 -127 -127 -16 0 -48 9 -72 20 -53 24
-97 25 -164 5 -66 -21 -94 -16 -322 61 -219 74 -277 82 -317 45 -14 -13 -41
-55 -61 -93 -24 -45 -45 -72 -61 -78 -35 -14 -109 14 -224 85 -118 72 -247
135 -276 135 -29 0 -112 58 -132 92 -15 25 -15 31 1 75 20 55 21 92 6 146 -17
64 -38 77 -123 77 -40 0 -98 -5 -127 -11 -30 -5 -117 -14 -194 -19 -129 -7
-152 -12 -295 -58 -313 -102 -377 -112 -420 -67 -38 40 -60 29 -97 -45 -31
-62 -74 -109 -169 -185 -50 -40 -65 -80 -63 -169 2 -118 -24 -160 -189 -304
-41 -35 -90 -96 -147 -183 -48 -71 -98 -137 -112 -146 -51 -34 -57 -67 -59
-328 -3 -278 -7 -327 -40 -414 -34 -90 -32 -110 17 -156 23 -22 50 -60 60 -84
11 -24 49 -81 85 -128 82 -105 114 -160 114 -198 1 -95 129 -234 296 -321 77
-40 98 -41 230 -13 69 15 120 19 169 16 90 -6 164 6 295 47 163 52 203 60 244
46 52 -17 112 -65 138 -110 26 -45 47 -49 149 -28 73 15 104 3 125 -49 13 -31
15 -71 9 -263 -9 -260 -5 -278 79 -372 52 -56 116 -178 116 -217 0 -15 13 -42
29 -61 57 -70 62 -89 88 -335 4 -41 -1 -66 -30 -140 -61 -158 -89 -257 -94
-341 -5 -79 -5 -82 42 -190 71 -163 83 -203 115 -394 36 -220 71 -321 200
-581 109 -218 119 -257 75 -277 -14 -7 -25 -20 -25 -31 0 -32 55 -87 112 -111
52 -22 54 -22 138 -7 47 9 138 24 203 32 263 36 331 74 473 267 114 156 158
251 174 376 13 101 30 131 105 185 94 68 99 78 93 200 -3 64 -13 123 -25 159
-18 52 -18 60 -5 88 21 43 111 122 222 196 126 83 164 133 190 243 22 93 -6
358 -44 416 -20 31 -46 122 -46 164 0 19 -7 61 -17 94 -15 55 -15 62 2 115 52
168 216 398 368 519 107 85 182 165 249 267 76 115 201 367 229 460 42 138 51
158 80 175 16 9 29 20 29 24 0 11 -47 3 -243 -39 -215 -46 -256 -50 -296 -30
-55 29 -111 86 -111 113 0 14 -13 37 -30 54 -16 17 -57 69 -89 117 -33 48 -87
119 -120 157 -37 43 -67 89 -77 118 -12 35 -26 55 -54 73 -20 14 -42 36 -49
51 -6 14 -16 80 -21 146 -8 109 -12 128 -43 186 -19 37 -42 89 -51 117 -16 48
-46 102 -175 313 -35 57 -51 95 -51 118 0 62 47 53 75 -14 18 -42 32 -42 51 2
8 19 18 35 23 35 31 0 160 -224 181 -315 20 -86 25 -98 40 -105 8 -4 27 -13
42 -20 38 -18 78 -101 78 -160 0 -99 49 -195 163 -320 68 -75 87 -122 98 -246
6 -58 17 -124 25 -146 41 -116 58 -113 446 76 173 84 342 172 376 194 110 75
214 165 228 196 7 17 31 49 53 71 29 28 41 47 41 68 0 17 12 45 30 67 47 59
42 72 -55 135 -101 67 -140 112 -162 184 l-16 55 -20 -30 c-55 -77 -169 -154
-253 -170 -43 -8 -61 6 -74 58 -6 21 -26 56 -44 76 -19 21 -40 61 -49 92 -9
30 -48 104 -87 164 -38 61 -70 115 -70 120 1 37 71 70 120 56 42 -12 65 -33
107 -98 47 -73 104 -126 171 -159 52 -26 65 -28 160 -26 l102 3 21 -44 c35
-75 98 -92 397 -105 238 -10 243 -12 327 -96 38 -38 70 -59 112 -74 115 -41
133 -60 84 -86 -38 -19 -39 -40 -4 -77 48 -50 107 -34 130 36 5 17 14 31 20
33 25 9 37 -46 44 -197 6 -135 12 -172 43 -284 42 -146 57 -187 86 -223 11
-14 20 -37 20 -50 0 -38 53 -162 137 -322 l76 -144 24 29 c35 43 90 160 108
229 9 33 20 125 24 205 5 80 14 156 20 170 7 14 31 38 54 52 103 65 376 332
435 425 31 48 53 59 136 67 58 6 119 29 163 62 21 15 23 14 50 -26 15 -23 62
-88 105 -145 104 -141 102 -135 100 -250 -2 -127 0 -135 44 -135 44 0 67 12
122 62 23 21 47 36 52 33 8 -5 15 -34 54 -227 8 -43 23 -95 33 -115 15 -33 18
-61 15 -198 -3 -210 0 -229 53 -310 25 -37 47 -84 50 -104 22 -147 165 -371
238 -371 24 0 27 4 27 33 -1 51 -38 205 -63 261 -13 28 -51 79 -84 112 -39 40
-72 85 -93 130 -17 38 -46 83 -62 101 -26 27 -30 37 -26 70 9 66 47 179 70
208 21 26 24 27 88 22 37 -3 84 -12 103 -21 32 -13 37 -20 43 -58 6 -34 18
-53 55 -89 46 -44 69 -93 69 -146 0 -13 6 -23 13 -23 13 0 86 56 219 169 l75
63 -4 72 c-7 127 -22 222 -43 277 -11 30 -58 107 -104 171 -101 139 -109 153
-101 177 8 25 169 181 187 181 9 0 32 -13 53 -30 45 -36 60 -37 76 -7 17 30
40 46 68 47 14 0 52 13 85 30 34 16 106 38 160 49 66 14 112 29 140 47 95 64
240 225 257 288 5 19 34 69 64 111 99 137 106 173 40 201 -19 8 -35 18 -35 23
0 5 16 19 35 32 19 13 35 29 35 35 0 5 -19 14 -42 20 -55 12 -59 42 -10 63 46
21 42 44 -29 151 -33 51 -64 103 -69 115 -20 51 63 143 191 211 l84 45 -70 -8
c-125 -13 -199 -7 -259 20 -64 29 -93 65 -77 95 39 72 273 219 306 192 22 -18
19 -39 -15 -90 -27 -41 -41 -100 -22 -100 4 0 27 22 52 50 58 66 101 75 184
37 60 -28 67 -42 45 -91 -17 -36 -4 -72 36 -96 59 -37 70 -61 67 -159 -2 -113
2 -118 66 -97 28 10 66 27 84 40 31 21 33 26 32 77 -1 41 -15 86 -58 188 -31
74 -56 138 -56 142 0 10 262 296 303 331 36 31 54 34 81 13 33 -25 88 -19 134
15 81 58 283 323 352 459 69 138 110 306 110 450 0 91 -27 158 -74 180 -26 12
-34 11 -73 -8 -63 -30 -118 -28 -140 5 -9 15 -41 38 -70 50 -29 13 -53 29 -53
35 0 29 240 250 411 379 159 119 260 155 319 113 36 -26 175 -22 255 7 73 26
89 26 147 0 56 -24 179 -42 228 -31 31 6 35 10 35 38 0 38 48 92 140 158 101
72 163 99 227 99 41 1 62 -4 74 -16 16 -16 15 -19 -10 -48 -30 -36 -36 -90
-10 -90 9 0 38 18 64 40 26 22 68 48 94 59 38 17 46 25 46 47 0 31 58 94 88
94 30 0 33 -23 8 -76 -32 -68 -71 -112 -123 -136 -24 -11 -103 -77 -181 -151
-75 -72 -159 -145 -187 -163 -65 -41 -89 -68 -117 -129 -21 -46 -23 -64 -23
-210 0 -146 2 -168 28 -255 16 -52 32 -99 37 -103 4 -5 28 18 53 50 59 76 122
133 148 133 19 0 20 4 15 35 -8 43 10 80 59 124 31 27 42 31 67 25 l31 -6 -6
42 c-10 75 25 140 75 140 36 0 38 28 4 65 -19 21 -23 33 -19 64 3 23 1 41 -6
45 -17 11 -13 66 9 111 30 63 72 97 119 100 29 2 51 11 76 34 24 21 46 31 68
31 18 0 61 7 97 16 74 17 102 13 143 -22 16 -13 38 -24 50 -24 12 0 63 27 112
61 107 72 222 129 323 159 70 21 84 22 170 4 69 -14 79 48 25 148 -32 59 -48
74 -97 90 -47 16 -86 62 -68 80 9 9 25 9 70 -1 31 -8 80 -16 109 -18 65 -6 89
14 98 84 14 98 49 114 73 34 15 -49 33 -56 82 -31 56 28 70 26 130 -26 29 -25
66 -48 81 -51 16 -3 49 -23 73 -44 48 -42 105 -55 91 -21 -8 20 -8 21 -6 45 2
25 87 107 112 107 37 0 79 32 79 61 0 28 -40 54 -152 98 -73 29 -109 25 -126
-14 -33 -76 -51 -80 -71 -15 -24 80 -42 108 -100 151 -149 112 -399 194 -671
220 -134 12 -250 33 -281 49 -34 19 -41 1 -28 -73 10 -53 10 -69 -1 -82 -19
-23 -44 -19 -134 22 l-81 37 -215 7 c-287 9 -336 24 -349 104 -13 79 -62 88
-382 71 l-166 -8 -37 37 c-30 29 -42 36 -62 31 -31 -8 -84 40 -84 77 0 64 -91
63 -223 -3 -65 -32 -91 -40 -99 -32 -8 8 -4 20 15 46 48 62 48 62 -170 70
-109 4 -200 3 -205 -2 -5 -5 -11 -33 -15 -63 -8 -71 -18 -89 -50 -89 -15 0
-52 -5 -83 -12 -50 -10 -60 -9 -104 10 -60 27 -92 28 -147 3 -40 -18 -45 -18
-79 -4 -73 32 -82 30 -110 -29 -24 -51 -27 -53 -63 -52 -46 2 -114 46 -214
138 -101 94 -106 125 -20 126 32 0 37 3 37 23 0 13 -14 36 -31 53 l-30 29
-137 0 c-110 0 -143 -3 -167 -17 -61 -35 -82 -41 -155 -45 -106 -7 -188 10
-220 46 -22 24 -36 29 -96 34 -83 8 -186 -5 -221 -29 -25 -16 -27 -16 -40 2
-24 31 -63 112 -63 129 0 31 -43 38 -126 21 -42 -8 -81 -19 -86 -24 -5 -5 15
-14 49 -21 87 -17 90 -27 7 -23 -86 5 -92 -4 -34 -45 22 -15 40 -30 40 -33 0
-3 -42 -20 -93 -39 -105 -39 -178 -49 -232 -31 l-37 12 24 25 c12 13 54 41 93
61 38 20 89 52 113 70 55 42 95 59 153 67 53 7 128 42 143 67 7 12 6 24 -3 42
-12 21 -11 28 8 54 30 43 27 50 -21 45 -35 -4 -50 0 -77 21 -41 31 -88 33
-204 11 -111 -21 -127 -20 -234 22 l-95 38 38 31 c20 17 34 36 30 42 -5 9 -89
32 -114 32 -4 0 -26 -9 -49 -21z m-5208 -2051 c25 -19 55 -73 55 -97 0 -5 -17
-7 -39 -4 -21 3 -48 0 -60 -6 -18 -10 -23 -8 -41 21 -25 40 -34 73 -26 93 9
23 78 19 111 -7z m1515 -1558 c6 -12 10 -35 8 -53 -3 -30 -6 -32 -52 -38 -56
-6 -91 -38 -82 -75 4 -13 0 -27 -9 -34 -24 -20 -18 -54 18 -99 69 -91 74 -100
70 -124 -6 -29 21 -97 38 -97 7 0 25 15 41 33 l28 32 25 -30 c33 -40 32 -55
-4 -55 -88 0 -119 -60 -50 -96 25 -13 29 -20 29 -57 0 -24 5 -69 11 -100 14
-80 7 -94 -53 -112 -64 -19 -119 -19 -161 -2 -32 14 -107 88 -107 107 0 6 16
59 35 119 19 59 35 115 35 124 0 9 -11 24 -24 32 -49 33 -144 258 -148 352 -2
35 3 48 27 74 60 62 186 117 272 118 33 1 45 -4 53 -19z m571 -77 c15 -41 -6
-117 -42 -148 -34 -28 -51 -25 -68 11 -15 33 10 94 55 134 19 16 37 30 40 30
2 0 9 -12 15 -27z"/>
<path d="M3911 12845 c-18 -13 -56 -26 -85 -30 -63 -9 -146 -51 -214 -111 -68
-59 -69 -77 -3 -68 31 4 51 2 55 -5 14 -22 46 -10 78 30 84 104 72 95 112 81
45 -17 67 -6 101 52 44 75 24 99 -44 51z"/>
<path d="M5424 12765 c-14 -35 34 -59 156 -79 52 -8 100 -22 110 -31 10 -9 23
-36 30 -61 7 -25 23 -52 34 -59 12 -8 67 -21 121 -29 55 -7 114 -21 130 -30
36 -19 107 -20 375 -5 273 15 260 12 260 58 0 24 9 49 25 71 14 18 23 35 21
37 -2 2 -25 -8 -52 -22 -47 -23 -62 -25 -320 -37 -291 -12 -371 -7 -442 30
-25 13 -41 30 -48 52 -14 42 -34 57 -98 69 -272 55 -294 58 -302 36z"/>
<path d="M17445 12760 c-22 -5 -85 -25 -140 -45 -89 -32 -113 -37 -210 -40
-99 -2 -123 -7 -235 -45 -81 -27 -150 -44 -198 -47 -79 -6 -97 -20 -69 -51 21
-23 10 -42 -65 -114 -67 -65 -70 -85 -18 -104 l35 -12 -50 -1 c-36 -1 -57 -7
-77 -24 -32 -26 -110 -146 -105 -161 2 -6 19 -9 38 -8 46 4 89 -29 89 -68 0
-15 6 -30 14 -33 28 -11 172 -18 201 -9 l30 9 -31 16 c-40 21 -92 80 -100 114
-12 44 32 109 161 240 138 140 193 173 335 198 106 18 330 86 416 125 50 22
65 34 62 47 -4 21 -27 24 -83 13z"/>
<path d="M4506 12734 c-3 -9 -6 -39 -6 -69 0 -35 -5 -57 -15 -65 -28 -23 -99
-14 -184 25 -88 39 -204 68 -260 63 -36 -3 -36 -3 -39 -57 -5 -83 43 -118 94
-70 19 18 30 20 68 15 25 -4 55 -15 68 -25 19 -16 20 -21 9 -35 -7 -9 -31 -21
-52 -28 -70 -20 -44 -31 64 -25 59 3 121 12 147 22 25 9 100 29 167 44 124 29
173 50 173 76 0 17 -33 28 -60 20 -37 -12 -60 5 -90 66 -24 47 -35 59 -54 59
-13 0 -27 -7 -30 -16z"/>
<path d="M5060 12737 c-54 -19 -51 -45 14 -111 110 -113 206 -114 206 -3 0 49
-47 100 -105 116 -49 14 -70 13 -115 -2z"/>
<path d="M22601 12669 c-15 -16 -21 -36 -21 -67 0 -59 13 -80 56 -88 38 -7
114 10 114 26 0 16 52 11 113 -10 85 -30 96 -24 56 32 -16 22 -20 38 -16 64 8
45 -13 55 -53 25 -37 -27 -50 -27 -109 4 -73 38 -113 42 -140 14z"/>
<path d="M3557 12446 c-65 -23 -77 -41 -77 -110 0 -77 -15 -105 -68 -134 -45
-25 -54 -42 -22 -42 31 0 72 -25 97 -58 39 -53 110 -48 179 13 21 20 50 38 64
41 44 10 50 13 57 31 10 30 75 75 148 103 37 14 30 4 -15 -21 -45 -26 -59 -49
-29 -49 55 0 119 62 119 115 0 60 -68 94 -193 95 -45 0 -93 6 -114 15 -44 18
-96 19 -146 1z"/>
<path d="M22806 12444 c-3 -9 -6 -40 -6 -69 0 -63 3 -65 106 -65 59 0 76 3 81
16 8 21 -13 38 -65 53 -33 9 -46 20 -59 47 -18 36 -47 45 -57 18z"/>
<path d="M5638 12406 c-82 -18 -88 -26 -87 -110 0 -88 17 -140 45 -144 24 -4
54 27 58 60 3 35 13 46 59 66 67 30 119 80 115 111 -3 25 -6 26 -68 28 -36 1
-90 -4 -122 -11z"/>
<path d="M5255 12380 c-33 -17 -73 -30 -88 -30 -36 0 -44 -23 -18 -56 16 -21
18 -30 10 -40 -16 -19 -39 -17 -95 6 -26 11 -49 18 -52 15 -14 -14 137 -135
228 -182 46 -24 50 -24 72 -9 12 9 37 16 55 16 34 0 73 29 73 54 0 7 -11 28
-25 47 -64 87 -65 90 -49 115 9 12 14 38 12 56 -3 29 -7 33 -33 35 -17 1 -57
-11 -90 -27z"/>
<path d="M4753 12373 c-7 -2 -13 -15 -13 -28 0 -29 -14 -40 -68 -55 -47 -12
-62 -35 -62 -95 0 -18 -8 -43 -18 -55 l-18 -22 -37 45 c-40 50 -154 114 -182
103 -8 -3 -20 -17 -25 -31 -11 -30 -20 -31 -53 -5 -35 28 -62 25 -87 -10 -12
-17 -30 -30 -42 -30 -19 0 -20 4 -15 60 4 33 3 62 -3 65 -12 7 -214 -95 -259
-132 -7 -5 29 -114 46 -140 15 -23 19 -23 162 -21 117 1 153 -1 184 -15 20 -9
37 -23 37 -31 0 -24 -62 -35 -227 -42 -84 -4 -153 -11 -153 -15 0 -4 26 -15
57 -24 68 -20 127 -49 165 -81 83 -69 216 -59 473 36 46 17 73 21 115 16 65
-6 184 -45 247 -81 62 -34 70 -32 36 13 -17 20 -33 43 -37 49 -12 21 11 50 59
72 53 25 58 41 12 41 -48 0 -148 28 -171 48 -48 43 -106 175 -106 240 0 20 7
46 15 56 20 26 19 62 -1 70 -9 3 -16 6 -17 5 -1 0 -8 -3 -14 -6z"/>
<path d="M6603 12364 c-16 -7 -17 -76 -1 -92 15 -15 50 -15 166 0 54 7 91 17
89 23 -2 5 -30 23 -61 40 -56 28 -160 44 -193 29z"/>
<path d="M6067 12334 c-34 -11 -67 -32 -108 -73 -55 -53 -59 -60 -59 -102 0
-59 47 -155 100 -203 l40 -36 123 0 c182 0 447 -18 530 -35 41 -8 103 -27 138
-41 35 -14 97 -35 138 -45 114 -29 135 -60 85 -126 -34 -44 -25 -51 22 -19 35
24 39 24 56 10 17 -16 41 -74 52 -126 6 -27 8 -28 75 -28 50 0 72 -4 81 -15
10 -12 10 -19 2 -27 -9 -9 -12 -8 -12 5 0 20 -39 32 -76 23 -21 -6 -25 -11
-21 -32 l4 -25 -21 20 c-31 29 -66 26 -115 -9 -52 -38 -59 -54 -37 -92 10 -16
16 -31 14 -32 -1 -2 -62 -8 -135 -13 -150 -10 -176 -22 -171 -77 3 -31 4 -31
65 -34 38 -2 75 3 97 12 32 13 42 13 93 0 73 -19 175 -73 181 -97 5 -21 40
-40 100 -57 41 -11 43 -12 28 -29 -24 -26 -20 -31 27 -31 65 0 152 -26 259
-77 54 -26 101 -44 104 -40 4 3 -12 27 -35 53 -22 26 -41 50 -41 54 0 4 17 12
39 18 28 9 42 20 51 41 20 50 -21 121 -139 245 -56 57 -101 109 -101 115 0 17
81 71 106 71 13 0 51 -24 91 -58 121 -103 137 -109 179 -66 18 17 24 32 20 46
-5 23 17 47 45 48 8 0 24 6 34 14 18 13 18 14 -4 45 -27 37 -69 61 -109 61
-20 0 -46 13 -78 40 -51 42 -81 55 -154 64 -99 14 -145 73 -96 125 38 40 34
66 -16 98 -62 38 -152 73 -191 73 -37 0 -97 18 -97 28 0 4 16 18 35 31 19 13
35 30 35 37 0 21 -63 17 -93 -6 -31 -25 -30 -25 -102 4 -48 20 -64 32 -80 62
-25 48 -70 74 -137 81 -72 7 -132 -14 -137 -47 -6 -45 -52 -53 -108 -19 -23
14 -45 20 -69 17 -50 -6 -67 17 -73 104 -6 67 -8 72 -32 79 -68 18 -159 -22
-183 -81 -21 -52 -21 -152 0 -196 13 -27 14 -37 4 -49 -7 -8 -18 -15 -24 -15
-6 0 -3 5 7 11 22 13 22 32 -1 52 -27 25 -42 21 -42 -10 -1 -27 -1 -27 -21 10
-12 23 -22 64 -24 105 l-4 67 13 -68 c7 -37 16 -70 20 -74 13 -14 27 15 33 69
4 42 1 65 -15 100 -33 75 -85 97 -165 72z"/>
<path d="M5523 12070 c-40 -24 -63 -67 -63 -120 0 -53 27 -80 79 -80 67 0 54
-17 -22 -29 -78 -14 -107 -8 -155 29 -39 31 -66 25 -106 -22 -20 -23 -35 -47
-33 -52 2 -6 17 -17 33 -26 16 -9 30 -27 32 -39 3 -21 7 -23 45 -17 52 9 125
41 154 68 13 12 23 16 23 10 0 -12 -16 -29 -60 -62 -22 -16 -23 -21 -12 -40
13 -21 12 -21 -17 -5 -38 19 -72 19 -119 -1 -94 -40 -138 -48 -257 -49 -112 0
-124 2 -183 29 -35 16 -74 43 -87 60 -24 31 -25 31 -122 31 -104 -1 -147 -14
-141 -43 4 -23 45 -42 91 -42 46 0 47 11 5 33 -32 15 -32 16 -7 16 14 1 34 -5
44 -13 16 -12 17 -16 6 -30 -7 -8 -23 -18 -34 -22 -45 -13 -57 -34 -57 -94 0
-91 -40 -107 -79 -33 -48 94 -101 116 -275 111 -186 -4 -237 20 -161 78 19 14
35 30 35 35 0 11 -94 59 -115 59 -9 0 -33 -9 -53 -19 -42 -21 -24 -25 -197 43
-50 19 -129 40 -177 47 -76 11 -90 11 -131 -5 -46 -17 -46 -17 -109 10 -113
48 -117 47 -290 -49 -134 -75 -233 -124 -175 -87 21 14 22 40 2 40 -9 0 -29
-7 -45 -15 -57 -29 -30 -5 55 50 48 31 85 61 85 70 0 22 -25 14 -133 -40 -48
-25 -94 -45 -103 -45 -9 0 -29 9 -46 21 -40 29 -45 19 -14 -33 29 -51 60 -171
51 -205 -16 -65 -95 26 -95 110 0 45 -9 54 -62 66 -26 6 -111 31 -189 56 -77
25 -169 48 -203 52 -33 3 -75 14 -93 25 -25 15 -64 21 -180 29 -158 10 -241
22 -272 39 -29 15 -88 12 -122 -6 -28 -14 -33 -14 -52 0 -12 9 -32 23 -44 32
-12 8 -55 20 -95 25 -43 6 -84 18 -100 30 -33 23 -47 24 -77 2 -19 -13 -28
-14 -42 -5 -28 18 -55 15 -108 -12 -27 -14 -57 -23 -69 -19 -14 3 -24 -2 -31
-16 -14 -25 -50 -44 -115 -60 -58 -14 -95 -39 -152 -98 -31 -33 -48 -43 -72
-43 -32 0 -173 -64 -171 -78 1 -11 119 -106 190 -152 35 -23 90 -48 121 -57
65 -18 77 -36 50 -73 -31 -42 -77 -47 -149 -16 -34 14 -76 26 -92 26 -34 0
-213 -70 -209 -82 2 -4 23 -18 48 -30 38 -20 45 -28 48 -56 5 -49 50 -66 172
-66 98 -1 96 -2 166 49 20 14 23 14 38 0 22 -22 20 -71 -4 -110 -29 -47 -117
-105 -159 -105 -67 0 -151 -81 -151 -145 0 -45 42 -126 84 -163 31 -27 45 -32
87 -32 44 0 54 -4 86 -36 51 -51 132 -86 213 -92 37 -2 75 0 86 5 30 16 44 5
44 -34 0 -94 -91 -183 -284 -277 -128 -62 -155 -80 -142 -93 20 -20 311 117
476 224 120 78 230 191 230 236 0 11 15 37 34 58 19 21 38 54 42 73 9 48 54
86 102 86 63 0 70 -13 29 -50 -38 -33 -65 -96 -54 -124 20 -50 177 25 177 84
0 42 9 59 41 75 43 23 63 18 114 -24 57 -47 164 -84 305 -106 116 -18 207 -45
320 -94 102 -46 142 -54 175 -39 22 10 29 8 51 -12 13 -14 39 -52 55 -86 17
-34 41 -71 52 -82 34 -31 119 -82 137 -82 55 0 121 -156 98 -232 -13 -46 -4
-59 64 -94 26 -13 48 -27 48 -30 0 -3 -16 -26 -36 -50 -39 -47 -40 -66 -2 -40
27 19 48 20 82 5 34 -16 38 -33 19 -74 -15 -31 -15 -37 -2 -50 8 -8 36 -19 62
-24 63 -11 116 -48 214 -146 118 -119 144 -184 94 -229 -16 -15 -19 -14 -41 9
-28 29 -45 32 -55 8 -9 -21 -25 -349 -26 -538 -2 -148 15 -240 59 -320 20 -38
35 -52 60 -60 27 -8 34 -16 43 -50 20 -80 31 -105 68 -162 41 -63 132 -153
154 -153 20 0 47 -33 47 -58 0 -17 7 -21 37 -24 46 -4 68 -33 108 -145 36
-102 77 -184 115 -226 30 -35 39 -70 20 -82 -24 -15 -5 -51 65 -126 57 -60 78
-92 88 -126 20 -74 139 -193 194 -193 35 0 29 33 -13 65 -20 15 -44 48 -55 72
-11 25 -51 94 -90 154 -39 59 -79 131 -90 159 -10 27 -39 89 -64 136 -25 46
-45 93 -45 103 0 22 30 51 53 51 25 0 77 -50 77 -74 0 -29 53 -117 155 -256
47 -63 96 -138 111 -166 14 -28 69 -104 121 -169 119 -148 146 -200 137 -271
-6 -49 -4 -54 31 -92 20 -23 65 -59 99 -81 82 -51 364 -192 443 -221 61 -22
72 -22 175 -4 33 5 49 -1 165 -72 141 -85 273 -151 325 -161 52 -9 82 -28 130
-82 55 -61 80 -111 86 -174 3 -26 8 -50 13 -53 5 -3 23 3 40 13 31 18 31 18
47 -5 52 -74 76 -92 137 -103 33 -6 72 -17 87 -25 42 -22 65 -17 99 21 18 20
42 35 54 35 77 0 153 -182 142 -341 -6 -87 -29 -140 -102 -234 -26 -33 -65
-96 -86 -142 -42 -85 -78 -226 -66 -256 4 -10 23 -27 43 -39 l37 -22 -25 -20
c-13 -12 -39 -33 -58 -47 l-34 -26 82 -184 c97 -222 108 -249 182 -456 81
-227 86 -235 243 -352 127 -94 269 -213 275 -231 2 -5 -11 -194 -27 -422 -17
-227 -35 -489 -41 -583 -17 -272 -26 -311 -113 -500 l-50 -110 -2 -130 c-1
-93 -7 -143 -18 -174 -21 -54 -22 -113 -2 -152 53 -101 29 -428 -32 -447 -6
-2 -19 11 -28 27 -20 39 -40 39 -60 1 -23 -44 -20 -70 8 -70 45 0 177 -141
163 -175 -2 -8 -22 -15 -43 -17 l-38 -3 -5 -135 c-4 -107 -9 -140 -23 -160
-25 -36 -22 -54 8 -46 35 9 110 -26 158 -72 33 -32 37 -41 32 -70 -5 -27 -3
-32 13 -32 22 0 39 18 76 83 15 26 38 52 50 57 25 9 36 29 36 63 1 34 34 101
73 143 19 22 37 50 40 64 3 14 38 64 77 110 38 47 70 93 70 102 0 10 -14 21
-35 28 -66 22 -107 107 -85 174 14 45 46 76 76 76 31 0 54 36 54 87 0 65 15
93 60 110 41 16 54 45 26 56 -19 8 -44 47 -56 86 -12 44 8 61 74 61 69 0 100
24 136 106 26 58 31 63 77 77 26 9 82 21 122 27 232 34 277 135 141 311 -77
99 -67 107 52 48 69 -35 81 -35 155 -7 113 42 209 164 355 448 73 143 85 188
63 250 -21 61 -19 86 13 115 38 36 195 143 228 155 15 6 44 26 64 44 37 33 81
48 182 61 66 9 92 34 142 138 86 183 102 253 110 502 3 88 10 176 16 195 5 19
30 55 54 80 105 107 215 293 231 388 15 93 -18 163 -98 204 -23 11 -66 45 -97
74 -64 61 -105 74 -282 93 -118 12 -164 31 -246 104 -124 112 -168 114 -257
10 -19 -23 -51 -47 -71 -53 -40 -13 -96 -6 -113 14 -14 17 1 31 59 51 62 22
80 41 80 87 0 33 -3 38 -22 38 -24 0 -76 -32 -149 -91 -52 -43 -88 -63 -97
-54 -21 21 146 230 189 237 18 3 16 9 -25 62 -37 47 -46 66 -46 98 0 53 -19
86 -85 146 -66 61 -139 91 -248 102 -66 6 -86 13 -130 43 -83 58 -306 288
-313 324 -3 17 -14 33 -23 35 -9 3 -69 0 -134 -5 -111 -10 -119 -10 -145 10
-15 11 -49 23 -75 26 -66 9 -143 44 -172 78 -13 16 -26 29 -29 29 -3 0 -15
-18 -26 -40 -11 -22 -32 -47 -46 -57 -24 -15 -26 -21 -20 -61 10 -74 -29 -98
-64 -39 -26 42 -25 71 4 121 13 23 27 51 30 64 12 38 -29 27 -82 -21 -69 -64
-92 -77 -134 -77 -43 0 -51 -11 -98 -135 -15 -38 -32 -71 -37 -72 -5 -2 -35
17 -66 42 -68 57 -98 62 -205 36 -100 -24 -113 -20 -174 48 -80 88 -83 103
-69 272 14 154 11 183 -19 199 -26 14 -184 40 -244 40 -29 0 -61 6 -71 14 -18
13 -19 19 -7 85 6 39 21 87 31 107 24 44 56 214 47 249 -6 24 -10 25 -75 25
-91 0 -147 -28 -178 -90 -13 -24 -23 -57 -23 -73 0 -68 -45 -95 -174 -104
-103 -7 -142 5 -199 62 -81 81 -133 219 -144 386 -5 82 -3 101 12 130 13 24
19 59 20 119 1 47 7 96 14 108 13 25 83 73 168 116 66 33 107 33 235 1 107
-28 228 -43 228 -30 0 5 -12 23 -26 42 l-26 34 23 25 c36 38 88 49 163 36 35
-7 88 -12 117 -12 109 0 177 -71 204 -213 25 -132 81 -217 142 -217 32 0 33 1
33 43 0 24 -18 109 -40 188 -68 241 -76 284 -59 316 8 14 71 87 141 162 70 74
135 150 143 168 9 17 28 38 43 45 20 10 28 22 30 46 2 18 10 36 18 39 19 7 18
28 -7 98 -23 67 -21 157 4 182 12 12 16 11 29 -9 8 -13 20 -40 27 -60 7 -21
16 -38 19 -38 4 0 13 22 19 50 14 60 49 122 105 184 48 56 84 76 135 76 47 0
87 19 91 44 2 10 -4 36 -14 57 -16 37 -16 41 1 78 26 59 73 99 136 115 29 8
100 35 157 61 110 50 155 61 198 51 25 -7 24 -8 -24 -32 -28 -14 -62 -41 -77
-60 -27 -36 -39 -94 -20 -100 6 -2 37 16 70 40 32 25 101 66 152 91 57 29 101
58 114 76 14 21 29 29 50 29 24 0 29 4 29 24 0 54 -44 46 -124 -24 -31 -27
-61 -50 -65 -50 -5 0 -21 10 -36 21 -22 18 -26 28 -21 50 6 33 -4 36 -39 13
-23 -15 -27 -15 -51 1 -42 27 -114 107 -114 126 0 19 20 29 60 29 35 0 60 23
60 55 0 32 -15 39 -75 38 -64 -2 -147 -33 -205 -78 -85 -66 -119 -87 -129 -80
-21 13 -10 37 42 92 67 71 142 127 222 164 58 27 76 30 235 40 179 10 243 20
290 44 16 8 63 24 107 36 121 33 123 34 123 132 0 107 -12 127 -78 127 -26 0
-76 -9 -110 -20 -77 -24 -101 -25 -109 -4 -13 35 94 104 164 104 34 0 28 14
-14 34 -21 10 -66 35 -100 57 -33 22 -74 41 -90 43 -33 3 -103 87 -103 125 0
13 -17 44 -39 70 -48 57 -77 115 -91 178 -12 52 -34 93 -51 93 -6 0 -34 -22
-62 -48 -80 -75 -110 -92 -158 -92 -25 0 -50 -7 -60 -16 -16 -14 -20 -14 -43
1 -31 20 -91 101 -98 132 -4 15 2 31 19 49 18 20 23 35 21 63 -3 32 -7 37 -43
49 -22 7 -71 38 -110 69 -95 76 -120 85 -250 91 -101 4 -112 2 -137 -17 -15
-12 -36 -47 -48 -79 -21 -56 -22 -86 -5 -169 5 -24 2 -41 -15 -67 -12 -20 -19
-40 -16 -45 4 -5 -2 -23 -11 -39 -20 -34 -16 -47 49 -145 22 -34 33 -63 36
-100 4 -46 -1 -61 -36 -129 -44 -83 -58 -142 -68 -288 -3 -52 -11 -110 -17
-129 -16 -45 -57 -76 -90 -67 -39 9 -194 161 -207 202 -11 33 -9 112 6 200 l6
30 -101 12 c-119 14 -199 44 -319 119 -121 76 -160 95 -198 95 -44 0 -61 22
-77 99 l-13 64 -56 3 c-66 3 -85 20 -103 89 -22 87 10 149 168 320 42 46 79
95 83 110 10 49 13 52 46 73 24 14 51 20 94 20 53 0 68 4 110 33 26 18 52 41
58 51 15 24 -10 41 -98 67 -61 18 -67 22 -54 36 37 37 166 39 210 3 17 -14 23
-31 26 -83 5 -85 -2 -115 -33 -127 -14 -5 -25 -16 -25 -24 0 -19 78 -65 123
-73 31 -5 37 -1 82 51 26 31 55 56 65 56 10 0 38 -11 61 -25 24 -14 59 -25 77
-25 28 0 32 3 32 27 0 51 -111 136 -219 169 -54 16 -107 52 -133 91 -30 46
-24 53 40 53 96 0 249 57 273 102 10 19 -5 58 -45 111 -17 24 -18 31 -8 60 23
65 14 86 -56 121 -39 20 -151 31 -172 17 -12 -8 -12 -15 -2 -44 19 -53 15 -71
-31 -133 -61 -82 -83 -100 -101 -85 -22 19 -56 94 -56 124 0 38 -29 106 -51
117 -36 20 -58 11 -94 -39 -20 -27 -43 -52 -52 -55 -24 -10 -43 13 -43 51 0
40 -34 77 -81 87 -25 5 -30 9 -24 23 30 69 4 135 -69 178 -51 30 -81 31 -123
5z m604 -2608 c30 -17 99 -96 122 -140 26 -50 58 -76 113 -90 138 -34 175 -45
196 -58 27 -18 29 -34 3 -34 -27 0 -58 -43 -66 -93 -4 -23 -9 -45 -12 -50 -2
-4 -19 14 -36 40 -19 28 -41 49 -53 51 -19 3 -21 8 -17 42 5 32 1 43 -20 64
-36 36 -73 43 -105 19 -42 -31 -89 -136 -111 -246 -30 -155 -41 -148 -52 30
-7 115 -6 131 10 153 18 25 57 48 119 71 120 43 -140 143 -327 125 l-66 -7 54
30 c29 17 72 46 95 64 71 58 91 62 153 29z"/>
<path d="M25625 12054 c-27 -9 -57 -22 -65 -30 -13 -13 -13 -16 0 -24 8 -5 29
-10 45 -10 44 0 197 19 203 25 3 3 0 16 -6 30 -10 23 -17 25 -69 24 -32 0 -80
-7 -108 -15z"/>
<path d="M16790 11955 c-19 -22 -3 -51 47 -84 67 -44 113 -38 113 14 0 57
-125 112 -160 70z"/>
<path d="M11250 11450 c-25 -4 -86 -11 -137 -15 -89 -7 -92 -8 -95 -33 -6 -50
-136 -112 -233 -112 -68 0 -72 -15 -7 -25 71 -11 110 -30 114 -57 4 -32 66
-60 147 -66 57 -4 81 1 173 31 109 37 219 87 251 115 25 22 21 48 -13 72 -16
12 -33 33 -36 48 -4 15 -11 33 -17 40 -10 13 -75 14 -147 2z"/>
<path d="M0 11103 c0 -48 30 -67 114 -71 57 -3 75 -1 85 12 32 38 -29 77 -131
84 l-68 5 0 -30z"/>
<path d="M12234 10612 c-84 -61 -164 -176 -164 -234 0 -15 8 -34 17 -43 14
-14 15 -22 5 -47 -20 -53 22 -107 99 -128 41 -11 59 -41 59 -96 0 -49 -12 -68
-60 -89 -29 -13 -39 -23 -35 -35 3 -9 -2 -25 -10 -36 -28 -37 -19 -51 36 -56
95 -9 88 -41 -19 -89 -58 -26 -83 -51 -68 -66 3 -4 52 3 109 15 59 13 137 22
185 22 133 0 195 44 196 139 1 43 0 45 -34 52 -42 9 -56 28 -76 99 -26 88 -68
145 -200 268 -12 11 -12 18 2 45 9 18 25 44 35 59 28 39 25 62 -7 54 -119 -30
-133 -2 -54 103 37 51 51 91 32 91 -5 0 -27 -13 -48 -28z"/>
<path d="M1325 10518 c-74 -38 -115 -77 -115 -108 0 -36 21 -53 51 -41 54 20
149 123 149 161 0 16 -42 11 -85 -12z"/>
<path d="M11880 10168 c-15 -16 -20 -31 -16 -50 5 -25 2 -29 -34 -39 -57 -17
-66 -31 -44 -68 17 -28 17 -32 1 -48 -19 -22 -39 -105 -31 -127 9 -23 19 -21
133 37 134 67 146 82 146 190 0 81 0 81 -34 104 -44 30 -94 30 -121 1z"/>
<path d="M22917 10144 c-4 -4 -4 -17 -1 -29 3 -14 -7 -51 -25 -95 -34 -80 -39
-139 -16 -197 25 -65 35 -161 35 -339 0 -190 5 -208 55 -202 26 3 30 8 33 36
2 23 -4 41 -22 63 -22 26 -26 40 -26 94 0 35 3 70 6 79 8 20 33 20 58 1 53
-40 59 -4 16 81 -46 89 -72 241 -68 389 3 114 2 120 -17 123 -12 2 -24 0 -28
-4z"/>
<path d="M8309 9662 c-24 -16 -75 -58 -112 -93 -77 -74 -84 -99 -38 -148 24
-26 37 -31 75 -31 25 0 79 11 120 24 l74 23 -5 -33 c-3 -18 -2 -49 1 -68 9
-46 32 -47 68 -4 24 29 29 32 47 21 32 -20 69 -16 76 7 9 28 -13 53 -42 47
-22 -4 -23 -1 -23 48 0 65 -23 97 -85 120 -36 14 -53 16 -85 7 -45 -11 -45
-14 7 51 13 16 23 35 23 43 0 24 -53 16 -101 -14z"/>
<path d="M7814 9611 c-12 -5 -25 -14 -28 -20 -15 -23 91 -91 142 -91 38 0 71
34 56 58 -26 41 -125 72 -170 53z"/>
<path d="M22832 9183 c-5 -10 -12 -43 -15 -75 -7 -71 -21 -98 -52 -98 -33 0
-55 -26 -55 -65 0 -71 43 -135 91 -135 24 0 28 4 31 33 l3 32 51 -3 c46 -3 55
0 87 28 20 17 53 36 73 42 46 12 82 50 90 95 8 44 -6 55 -63 50 -48 -5 -83 12
-150 74 -46 42 -77 49 -91 22z"/>
<path d="M22743 8758 c-28 -13 -31 -23 -49 -132 -8 -48 -19 -97 -25 -108 -10
-18 -12 -18 -35 -3 -36 23 -68 16 -72 -16 -2 -14 4 -31 12 -39 21 -17 20 -33
-4 -55 -18 -16 -25 -17 -54 -7 -51 19 -61 15 -84 -33 -28 -57 -52 -72 -147
-90 -103 -20 -151 -43 -219 -104 -31 -28 -60 -51 -64 -51 -5 0 -17 7 -28 15
-10 8 -29 15 -41 15 -34 0 -29 -36 14 -106 33 -53 37 -66 38 -132 0 -60 4 -76
23 -94 21 -21 24 -22 49 -8 17 9 42 45 67 96 53 107 59 113 107 112 42 0 82
20 99 52 14 27 6 38 -44 61 -40 18 -41 19 -11 19 39 0 69 -21 101 -71 13 -21
30 -39 37 -39 7 0 30 18 51 39 46 47 93 61 205 61 l80 0 11 43 c50 194 83 305
101 334 24 38 29 136 10 185 -18 47 -86 77 -128 56z"/>
<path d="M13478 8483 c-40 -6 -55 -29 -34 -52 28 -31 137 -75 155 -64 20 13
27 86 9 100 -15 13 -92 23 -130 16z"/>
<path d="M21331 7251 c-54 -54 -53 -219 1 -229 13 -2 18 11 27 65 17 99 18
175 4 180 -6 2 -21 -5 -32 -16z"/>
<path d="M6389 7126 c-46 -16 -99 -54 -99 -70 0 -7 27 -24 60 -39 55 -23 60
-28 60 -56 0 -32 16 -41 38 -19 17 17 15 48 -5 70 -9 10 -13 21 -10 24 10 11
143 -42 252 -99 93 -48 100 -55 103 -85 3 -25 9 -33 29 -38 38 -10 136 2 171
20 41 21 41 47 0 81 -52 44 -345 183 -432 205 -91 23 -117 24 -167 6z"/>
<path d="M1043 6933 c-4 -9 1 -29 10 -44 10 -19 14 -41 10 -63 -10 -62 54 -99
97 -56 28 28 25 44 -14 87 -18 21 -31 44 -29 51 13 35 -61 60 -74 25z"/>
<path d="M7140 6775 c-5 -14 -21 -30 -35 -35 -99 -38 104 -72 238 -41 27 6 64
9 83 5 29 -5 34 -4 34 14 0 11 -11 27 -25 36 -36 24 -140 46 -218 46 -63 0
-68 -2 -77 -25z"/>
<path d="M21310 6706 c-6 -8 -18 -50 -25 -93 -29 -159 -15 -227 54 -262 22
-12 46 -21 54 -21 23 0 79 -47 114 -97 29 -40 34 -54 30 -85 -4 -28 -1 -38 9
-38 19 0 48 46 38 62 -4 6 6 2 23 -10 32 -23 53 -28 53 -13 0 16 -43 65 -167
193 -134 137 -146 162 -97 194 55 37 72 123 31 162 -27 26 -98 30 -117 8z"/>
<path d="M21602 5880 c-69 -33 -88 -36 -94 -18 -2 6 -12 9 -21 5 -22 -8 -77
-86 -77 -109 0 -22 27 -23 54 -3 11 8 33 15 48 15 29 0 40 -15 52 -72 13 -58
108 -41 143 24 20 38 22 132 4 166 -16 29 -34 28 -109 -8z"/>
<path d="M18324 5875 c-11 -17 -17 -49 -18 -96 -1 -64 1 -73 23 -90 27 -22 58
-19 99 7 27 18 28 48 3 115 -34 89 -75 113 -107 64z"/>
<path d="M20925 5604 c-133 -126 -222 -199 -267 -217 -23 -10 -47 -31 -62 -56
-26 -41 -70 -71 -104 -71 -10 0 -23 -5 -30 -12 -19 -19 -14 -102 9 -164 28
-74 116 -203 154 -226 17 -9 62 -20 100 -23 39 -3 94 -11 123 -17 41 -9 58 -9
73 0 10 7 31 12 45 12 l26 0 -7 75 c-6 72 -6 75 24 112 16 21 42 63 57 93 34
71 71 120 90 120 20 0 17 28 -6 58 -15 18 -19 34 -15 54 6 24 2 29 -27 42 -18
8 -42 17 -52 21 -17 5 -8 17 59 85 l78 79 -34 28 c-18 15 -53 45 -77 66 -24
20 -46 37 -50 37 -4 0 -52 -43 -107 -96z"/>
<path d="M19470 5580 c0 -5 31 -46 69 -92 95 -116 157 -211 170 -261 7 -29 30
-65 70 -110 32 -37 64 -82 71 -100 6 -17 19 -47 27 -64 22 -45 169 -209 220
-246 41 -29 43 -30 63 -12 11 10 22 34 26 54 3 20 20 66 36 103 29 65 30 68
14 93 -13 20 -22 24 -41 19 -16 -4 -36 1 -58 15 -48 30 -137 126 -137 149 0
23 -46 77 -207 244 -62 65 -113 122 -113 127 0 17 -63 48 -137 69 -40 11 -73
17 -73 12z"/>
<path d="M21352 5219 c-29 -5 -62 -14 -74 -20 -29 -15 -55 -81 -73 -183 -19
-112 -19 -186 0 -212 8 -11 15 -41 15 -69 0 -60 35 -138 64 -144 15 -2 18 1
12 20 -14 50 -19 245 -7 267 24 45 57 3 86 -108 28 -109 62 -141 84 -79 24 68
6 142 -47 196 -39 40 -72 83 -72 95 0 4 7 14 16 22 12 13 29 15 85 10 65 -6
69 -6 69 13 0 28 -17 33 -116 33 -71 0 -87 3 -104 20 -25 25 -14 52 33 80 26
16 51 20 135 20 105 0 142 9 142 35 0 12 -18 15 -97 14 -54 -1 -122 -5 -151
-10z"/>
<path d="M22080 5068 c0 -22 28 -43 95 -72 32 -15 61 -29 63 -31 3 -2 -10 -16
-27 -30 -35 -30 -42 -74 -15 -96 12 -10 20 -10 35 -1 10 7 30 12 43 12 31 0
189 -79 250 -125 47 -37 106 -108 106 -129 0 -6 -18 -33 -40 -60 -22 -26 -40
-52 -40 -56 0 -4 24 -7 53 -7 40 1 73 -8 147 -40 145 -63 214 -66 222 -11 4
28 78 68 125 68 42 0 117 -65 133 -116 14 -40 53 -64 147 -88 114 -30 123 -14
34 63 -75 65 -118 130 -126 190 -11 74 -13 79 -81 127 -142 101 -346 204 -547
274 l-118 42 -59 -56 c-32 -31 -67 -56 -77 -56 -11 0 -34 16 -53 35 -26 27
-35 47 -40 83 -5 47 -5 47 -60 65 -78 27 -170 34 -170 15z"/>
<path d="M23531 4785 c-28 -20 -65 -38 -82 -42 -78 -15 -76 -123 3 -123 59 0
182 138 165 183 -9 25 -29 21 -86 -18z"/>
<path d="M20217 4623 c-4 -3 -7 -16 -7 -29 0 -48 92 -81 340 -124 96 -17 185
-37 198 -46 29 -19 66 -15 70 9 6 28 -35 65 -113 104 -61 31 -83 37 -175 44
-58 4 -136 17 -175 28 -70 21 -126 27 -138 14z"/>
<path d="M21683 4455 c-72 -33 -176 -134 -171 -166 5 -39 47 -36 129 8 123 66
176 132 137 171 -17 17 -36 15 -95 -13z"/>
<path d="M22140 4186 c0 -17 -18 -39 -60 -76 -46 -40 -60 -58 -60 -79 0 -16
-9 -36 -21 -47 -34 -31 -39 -48 -23 -78 21 -42 18 -56 -13 -57 -105 -6 -190
18 -222 62 -18 24 -29 30 -54 27 -25 -2 -32 -9 -39 -35 -6 -25 -23 -42 -66
-71 -56 -37 -57 -38 -60 -89 -4 -72 -22 -84 -59 -39 -43 54 -53 47 -53 -34 0
-69 -1 -72 -41 -115 -49 -53 -153 -125 -180 -125 -30 0 -333 -158 -378 -197
-74 -62 -78 -144 -11 -228 31 -39 39 -86 20 -115 -9 -13 -15 -10 -39 18 -15
17 -35 32 -45 32 -26 0 -14 -40 39 -125 80 -130 146 -373 149 -547 2 -109 9
-123 80 -158 65 -31 102 -26 186 25 83 50 182 85 239 85 40 0 106 31 194 93
46 32 69 40 143 52 49 7 118 21 153 30 78 21 164 9 256 -35 85 -41 129 -81
175 -161 23 -38 46 -69 53 -69 12 0 50 55 85 126 28 54 47 70 67 54 21 -18 19
-49 -10 -114 -14 -31 -25 -63 -25 -71 0 -19 21 -19 46 0 40 30 71 10 58 -39
-4 -16 8 -39 43 -87 26 -35 61 -91 78 -124 39 -75 73 -95 165 -95 47 0 74 6
98 20 18 11 38 20 45 20 7 0 33 -20 57 -45 25 -25 53 -45 66 -45 13 0 36 18
62 49 44 52 93 81 139 81 44 0 52 10 74 101 12 46 44 138 71 204 72 174 84
212 107 327 32 157 51 321 51 434 l0 103 -53 24 c-66 30 -119 76 -163 141 -18
28 -52 73 -74 99 -22 27 -40 59 -40 73 0 18 -11 29 -47 48 -51 25 -76 54 -113
126 -37 73 -58 145 -65 222 -9 97 -21 134 -60 177 -42 47 -60 83 -85 172 -21
79 -31 95 -53 86 -20 -7 -56 -109 -68 -191 -18 -119 -48 -225 -88 -311 -21
-45 -43 -85 -48 -88 -18 -11 -290 184 -320 229 -23 36 -11 113 33 201 41 83
40 119 -2 109 -17 -5 -33 0 -51 14 -16 13 -41 20 -67 20 -22 0 -66 7 -96 15
-73 20 -80 19 -80 -9z"/>
<path d="M16067 4083 c-4 -3 -7 -18 -7 -32 0 -71 -95 -181 -209 -241 -114 -61
-146 -129 -135 -289 l7 -99 -34 -59 c-29 -51 -33 -66 -33 -128 0 -75 36 -196
73 -245 24 -33 87 -33 153 -1 41 20 50 29 68 79 12 31 40 134 61 227 80 344
91 391 111 450 36 106 12 345 -35 345 -7 0 -17 -3 -20 -7z"/>
<path d="M24484 3396 c-11 -29 2 -52 50 -84 67 -45 93 -50 119 -23 21 20 21
22 5 49 -33 54 -159 96 -174 58z"/>
<path d="M25090 2117 c0 -7 16 -40 37 -73 83 -135 93 -157 93 -209 -1 -35 -8
-62 -25 -90 -34 -55 -33 -82 4 -90 40 -8 60 -34 69 -86 6 -34 12 -45 28 -47
25 -4 44 23 68 94 18 54 38 80 70 85 13 3 23 19 32 54 22 83 20 87 -28 83 -43
-3 -51 5 -81 77 -2 6 -19 2 -41 -9 -20 -11 -38 -17 -40 -15 -2 2 -20 37 -41
76 -57 110 -145 201 -145 150z"/>
<path d="M23075 1530 c-8 -13 44 -161 65 -184 21 -21 99 -33 125 -18 20 10 65
122 65 160 0 35 -52 52 -159 52 -49 0 -93 -4 -96 -10z"/>
<path d="M25082 1523 c-38 -18 -76 -65 -86 -104 -6 -28 -32 -59 -101 -120
-101 -90 -225 -249 -225 -291 0 -21 1 -22 34 -7 21 10 35 8 84 -15 33 -14 71
-26 84 -26 56 0 108 72 108 148 0 39 7 51 95 160 22 28 35 54 35 73 0 23 7 34
30 47 54 31 61 115 11 141 -25 14 -30 14 -69 -6z"/>
<path d="M17480 795 c-17 -21 -5 -62 30 -96 35 -36 60 -36 99 -3 37 31 45 80
11 69 -12 -4 -33 3 -57 19 -43 30 -65 32 -83 11z"/>
<path d="M7357 343 c-4 -3 -7 -26 -7 -49 0 -23 -4 -54 -10 -68 -8 -23 -15 -26
-60 -26 -43 0 -50 -3 -50 -20 0 -22 50 -40 111 -40 41 0 99 -18 99 -30 0 -5
13 -11 29 -15 34 -7 111 21 111 42 0 30 -32 73 -106 142 -70 65 -100 82 -117
64z"/>
<path d="M9668 253 c-33 -8 -22 -50 20 -77 67 -44 134 -47 147 -5 10 29 -19
56 -78 74 -52 15 -59 16 -89 8z"/>
</g>
</svg>
